<svg xmlns="http://www.w3.org/2000/svg" width="24" height="24" viewBox="0 0 24 24" fill="none" stroke="currentColor" stroke-width="2" stroke-linecap="round" stroke-linejoin="round">
  <style>
    path {
      stroke: #4f46e5; /* This is primary-600 in your theme */
    }
    @media (prefers-color-scheme: dark) {
      path {
        stroke: #a5b4fc; /* A lighter color for dark mode */
      }
    }
  </style>
  <path d="M9.5 2A2.5 2.5 0 0 1 12 4.5v0A2.5 2.5 0 0 1 9.5 7h0A2.5 2.5 0 0 1 7 4.5v0A2.5 2.5 0 0 1 9.5 2Z"/>
  <path d="M14.5 2A2.5 2.5 0 0 1 17 4.5v0A2.5 2.5 0 0 1 14.5 7h0A2.5 2.5 0 0 1 12 4.5v0A2.5 2.5 0 0 1 14.5 2Z"/>
  <path d="M12 7.5c-2.5 0-5 2.5-5 6v2.5c0 .8.7 1.5 1.5 1.5h1c.8 0 1.5-.7 1.5-1.5v-1c0-.8.7-1.5 1.5-1.5h0c.8 0 1.5.7 1.5 1.5v1c0 .8.7 1.5 1.5 1.5h1c.8 0 1.5-.7 1.5-1.5V13.5c0-3.5-2.5-6-5-6Z"/>
  <path d="M4.5 10.5c-1.5 0-3 1.5-3 4v0c0 1.7 1.3 3 3 3h0"/>
  <path d="M19.5 10.5c1.5 0 3 1.5 3 4v0c0 1.7-1.3 3-3 3h0"/>
</svg> 